<mxfile host="app.diagrams.net" modified="2024-03-22T07:14:56.897Z" agent="Mozilla/5.0 (X11; Ubuntu; Linux x86_64; rv:122.0) Gecko/20100101 Firefox/122.0" version="24.0.7" etag="tqaigPAHyH1Dh7x5rhDy" type="github">
  <diagram name="Page-1" id="hI8qzRca83uLxwxGrD93">
    <mxGraphModel>
      <root>
        <mxCell id="0" />
        <mxCell id="1" parent="0" />
      </root>
    </mxGraphModel>
  </diagram>
</mxfile>
